<svg xmlns="http://www.w3.org/2000/svg" xmlns:xlink="http://www.w3.org/1999/xlink" version="1.1" x="0px" y="0px" viewBox="0 0 100 125" style="enable-background:new 0 0 100 100;" xml:space="preserve"><g><path d="M31.8,44.6c-1.5-1.6-4-1.7-5.7-0.3c-1.6,1.5-1.7,4-0.3,5.7l16.9,18.5c0.7,0.8,1.7,1.2,2.8,1.3c0.1,0,0.1,0,0.2,0   c1,0,2-0.4,2.7-1L90.9,30c1.6-1.5,1.7-4,0.3-5.7c-1.5-1.6-4-1.7-5.7-0.3L46,60.1L31.8,44.6z"/><path d="M17,85h58c3.3,0,6-2.7,6-6V54.7c0-2.2-1.8-4-4-4s-4,1.8-4,4V77H19V23h54.5c0.7,1.2,2,2,3.5,2c2.2,0,4-1.8,4-4   c0-3.3-2.7-6-6-6H17c-3.3,0-6,2.7-6,6v58C11,82.3,13.7,85,17,85z"/></g><text x="0" y="115" fill="#000000" font-size="5px" font-weight="bold" font-family="'Helvetica Neue', Helvetica, Arial-Unicode, Arial, Sans-serif">Created by Icon Depot</text><text x="0" y="120" fill="#000000" font-size="5px" font-weight="bold" font-family="'Helvetica Neue', Helvetica, Arial-Unicode, Arial, Sans-serif">from the Noun Project</text></svg>